# xmcd CD database file
#
# Track frame offsets:
#	182
#	13007
#	25792
#	38442
#	51260
#	64745
#	77515
#	90000
#	103812
#	117595
#	131412
#	144915
#	158792
#	172732
#	184797
#	199352
#	210240
#	223247
#	236620
#	249752
#	260780
#
# Disc length: 3648 seconds
#
# Revision: 0
# Processed by: cddbd v1.4PL0 Copyright (c) Steve Scherf et al.
# Submitted via: CDex 1.51
#
DISCID=140e3e15
DTITLE=Billie Holiday - Complete Edition Volume 5 - 1937-1937
DYEAR=1900
DGENRE=Jazz
TTITLE0=I Can't Get Started With You
TTITLE1=My First Impression Of You
TTITLE2=My First Impression Of You
TTITLE3=When You're Smiling
TTITLE4=When You're Smiling
TTITLE5=I Can't Believe That You're In Love With Me
TTITLE6=I Can't Believe That You're In Love With Me
TTITLE7=If Dreams Come True
TTITLE8=If Dreams Come True
TTITLE9=Now They Call It Swing
TTITLE10=Now They Call It Swing
TTITLE11=On The Sentimental Side
TTITLE12=On The Sentimental Side
TTITLE13=Back In Your Own Backyard
TTITLE14=Back In Your Own Backyard
TTITLE15=When A Woman Loves A Man
TTITLE16=You Go To My Head
TTITLE17=The Moon Looks Down And Laughs
TTITLE18=The Moon Looks Down And Laughs
TTITLE19=If I Were You
TTITLE20=Forget If You Can
EXTD=
EXTT0=
EXTT1=
EXTT2=
EXTT3=
EXTT4=
EXTT5=
EXTT6=
EXTT7=
EXTT8=
EXTT9=
EXTT10=
EXTT11=
EXTT12=
EXTT13=
EXTT14=
EXTT15=
EXTT16=
EXTT17=
EXTT18=
EXTT19=
EXTT20=
PLAYORDER=
